<svg width="121" height="48" viewBox="0 0 121 48" fill="none" xmlns="http://www.w3.org/2000/svg">
<path d="M62.786 33H57.56V16.698H62.786C64.45 16.698 65.7673 16.8367 66.738 17.114C67.726 17.3913 68.5147 17.8333 69.104 18.44C69.6933 19.0467 70.118 19.87 70.378 20.91C70.6553 21.9327 70.794 23.2413 70.794 24.836C70.794 27.6613 70.1613 29.7327 68.896 31.05C67.6307 32.35 65.594 33 62.786 33ZM66.712 20.702C66.3827 20.2687 65.9233 19.9653 65.334 19.792C64.7447 19.6013 63.8953 19.506 62.786 19.506H60.68V30.062H62.786C64.658 30.062 65.9233 29.6807 66.582 28.918C67.2407 28.1553 67.57 26.7947 67.57 24.836C67.57 23.796 67.5007 22.9467 67.362 22.288C67.2233 21.6293 67.0067 21.1007 66.712 20.702ZM80.0374 30.296C80.7481 30.296 81.5021 30.218 82.2994 30.062C83.1141 29.906 83.8421 29.698 84.4834 29.438V32.22C83.5301 32.6013 82.6721 32.8613 81.9094 33C81.1641 33.156 80.3841 33.234 79.5694 33.234C76.9867 33.234 75.1841 32.5927 74.1614 31.31C73.1387 30.01 72.6274 27.8433 72.6274 24.81C72.6274 21.9153 73.2341 19.8007 74.4474 18.466C75.6607 17.114 77.6107 16.438 80.2974 16.438C81.0947 16.438 81.8054 16.4553 82.4294 16.49C83.0534 16.5247 83.6167 16.5853 84.1194 16.672V19.402C83.4607 19.35 82.8194 19.3153 82.1954 19.298C81.5887 19.2633 80.9561 19.246 80.2974 19.246C78.5467 19.246 77.3594 19.6533 76.7354 20.468C76.1287 21.2827 75.8254 22.73 75.8254 24.81C75.8254 26.89 76.1027 28.3287 76.6574 29.126C77.2294 29.906 78.3561 30.296 80.0374 30.296ZM93.8655 16.698V33H90.7455V16.698H93.8655ZM103.544 14.618L98.1096 35.08H95.8216L101.282 14.618H103.544ZM119.646 24.81C119.646 27.774 119.056 29.9233 117.878 31.258C116.716 32.5753 114.818 33.234 112.184 33.234C109.376 33.234 107.426 32.6187 106.334 31.388C105.242 30.14 104.696 27.9473 104.696 24.81C104.696 21.8633 105.285 19.7313 106.464 18.414C107.642 17.0967 109.549 16.438 112.184 16.438C114.974 16.438 116.916 17.062 118.008 18.31C119.1 19.5407 119.646 21.7073 119.646 24.81ZM108.492 28.918C108.769 29.4207 109.176 29.776 109.714 29.984C110.251 30.192 111.074 30.296 112.184 30.296C113.9 30.296 115.044 29.9147 115.616 29.152C116.188 28.372 116.474 26.9247 116.474 24.81C116.474 23.7873 116.422 22.9467 116.318 22.288C116.231 21.6293 116.075 21.092 115.85 20.676C115.572 20.156 115.165 19.792 114.628 19.584C114.09 19.3587 113.276 19.246 112.184 19.246C110.45 19.246 109.298 19.636 108.726 20.416C108.154 21.196 107.868 22.6607 107.868 24.81C107.868 25.8327 107.92 26.6733 108.024 27.332C108.128 27.9907 108.284 28.5193 108.492 28.918Z" fill="#363A49"/>
<rect x="0.5" y="0.5" width="47" height="47" rx="7.5" fill="#FCFCFE" stroke="#DFE2EC"/>
<path d="M11.25 6H27.6667C29.8758 6 31.6667 7.79086 31.6667 10V36.625H15.25C13.0409 36.625 11.25 34.8341 11.25 32.625V6Z" fill="url(#paint0_linear_6752_3240)"/>
<path d="M17.082 11.833H33.4987C35.7078 11.833 37.4987 13.6239 37.4987 15.833V42.458H21.082C18.8729 42.458 17.082 40.6671 17.082 38.458V11.833Z" fill="url(#paint1_linear_6752_3240)"/>
<defs>
<linearGradient id="paint0_linear_6752_3240" x1="21.4583" y1="6" x2="21.4583" y2="36.625" gradientUnits="userSpaceOnUse">
<stop stop-color="#FF2837"/>
<stop offset="1" stop-color="white"/>
</linearGradient>
<linearGradient id="paint1_linear_6752_3240" x1="27.2904" y1="11.833" x2="27.2904" y2="42.458" gradientUnits="userSpaceOnUse">
<stop stop-color="#FF2837"/>
<stop offset="1" stop-color="white"/>
</linearGradient>
</defs>
</svg>
